<svg width="24" height="24" viewBox="0 0 24 24" fill="none" xmlns="http://www.w3.org/2000/svg">
<g clip-path="url(#clip0_2490_35337)">
<path d="M17.6071 14.79L22.4071 19.59C22.7811 19.964 22.9912 20.4712 22.9912 21C22.9912 21.5289 22.7811 22.0361 22.4071 22.41C22.0332 22.784 21.526 22.9941 20.9971 22.9941C20.4683 22.9941 19.9611 22.784 19.5871 22.41L14.7871 17.61L17.6071 14.79Z" fill="#F1EEFF"/>
<path d="M19.0001 10.0002C19.0001 12.3872 18.0518 14.6764 16.364 16.3642C14.6762 18.052 12.387 19.0002 10.0001 19.0002C7.61311 19.0002 5.32393 18.052 3.6361 16.3642C1.94827 14.6764 1.00006 12.3872 1.00006 10.0002C0.996904 9.15376 1.1182 8.31142 1.36006 7.50023C1.90041 5.62626 3.03538 3.97877 4.59384 2.80619C6.1523 1.63361 8.04974 0.999512 10.0001 0.999512C11.9504 0.999512 13.8478 1.63361 15.4063 2.80619C16.9647 3.97877 18.0997 5.62626 18.6401 7.50023C18.8819 8.31142 19.0032 9.15376 19.0001 10.0002Z" fill="#C0AFFF"/>
<path d="M9.99938 14C14.7711 14 18.6394 11.0899 18.6394 7.5C18.6394 3.91015 14.7711 1 9.99938 1C5.22763 1 1.35938 3.91015 1.35938 7.5C1.35938 11.0899 5.22763 14 9.99938 14Z" fill="#C0AFFF" fill-opacity="0.8"/>
<path d="M5 11C4.73478 11 4.48043 10.8946 4.29289 10.7071C4.10536 10.5196 4 10.2652 4 10C4.00159 8.40919 4.63424 6.88399 5.75911 5.75911C6.88399 4.63424 8.40919 4.00159 10 4C10.2652 4 10.5196 4.10536 10.7071 4.29289C10.8946 4.48043 11 4.73478 11 5C11 5.26522 10.8946 5.51957 10.7071 5.70711C10.5196 5.89464 10.2652 6 10 6C8.93913 6 7.92172 6.42143 7.17157 7.17157C6.42143 7.92172 6 8.93913 6 10C6 10.2652 5.89464 10.5196 5.70711 10.7071C5.51957 10.8946 5.26522 11 5 11Z" fill="#F1EEFF"/>
<path d="M18.8552 14.6241C19.9657 12.5015 20.2792 10.0513 19.7389 7.71746C19.1985 5.38362 17.84 3.32054 15.9096 1.90202C13.9792 0.483492 11.6045 -0.196631 9.21579 -0.0151227C6.8271 0.166386 4.58244 1.19752 2.88851 2.89144C1.19459 4.58537 0.163456 6.83003 -0.0180524 9.21872C-0.199561 11.6074 0.480562 13.9821 1.89909 15.9125C3.31761 17.843 5.38069 19.2014 7.71453 19.7418C10.0484 20.2821 12.4986 19.9686 14.6212 18.8581L18.8752 23.1131C19.4361 23.6752 20.1974 23.9915 20.9915 23.9923C21.7856 23.9932 22.5475 23.6785 23.1097 23.1176C23.6718 22.5567 23.9881 21.7954 23.9889 21.0013C23.9898 20.2072 23.6751 19.4452 23.1142 18.8831L18.8552 14.6241ZM1.99917 10.0001C1.99917 8.41785 2.46836 6.87113 3.34741 5.55553C4.22646 4.23994 5.47589 3.21456 6.9377 2.60906C8.39951 2.00356 10.008 1.84513 11.5599 2.15381C13.1117 2.4625 14.5372 3.22442 15.656 4.34324C16.7748 5.46206 17.5368 6.88753 17.8454 8.43937C18.1541 9.99122 17.9957 11.5998 17.3902 13.0616C16.7847 14.5234 15.7593 15.7728 14.4437 16.6519C13.1281 17.5309 11.5814 18.0001 9.99917 18.0001C7.87817 17.9977 5.84472 17.1541 4.34494 15.6543C2.84517 14.1545 2.00155 12.1211 1.99917 10.0001ZM21.6992 21.7081C21.5122 21.8913 21.2609 21.994 20.9992 21.994C20.7374 21.994 20.4861 21.8913 20.2992 21.7081L16.3322 17.7401C16.8439 17.3186 17.3128 16.8476 17.7322 16.3341L21.7042 20.3001C21.7983 20.3918 21.8729 20.5015 21.9236 20.6227C21.9743 20.7439 22 20.8741 21.9992 21.0055C21.9983 21.1369 21.971 21.2668 21.9187 21.3873C21.8665 21.5079 21.7905 21.6166 21.6952 21.7071L21.6992 21.7081Z" fill="#7752FE"/>
</g>
<defs>
<clipPath id="clip0_2490_35337">
<rect width="24" height="24" fill="white"/>
</clipPath>
</defs>
</svg>
