<svg width="88" height="15" viewBox="0 0 88 15" fill="none" xmlns="http://www.w3.org/2000/svg">
<path d="M9.57484 9.43L8.22484 5.44C8.12484 5.18667 8.01818 4.89 7.90484 4.55C7.79151 4.20333 7.67818 3.83 7.56484 3.43C7.46484 3.83667 7.35818 4.21333 7.24484 4.56C7.13151 4.90667 7.02484 5.20667 6.92484 5.46L5.58484 9.43H9.57484ZM14.9448 15H12.3248C12.0315 15 11.7948 14.9333 11.6148 14.8C11.4348 14.66 11.2982 14.4833 11.2048 14.27L10.3448 11.73H4.80484L3.94484 14.27C3.87151 14.4567 3.73818 14.6267 3.54484 14.78C3.35818 14.9267 3.12484 15 2.84484 15H0.204844L5.84484 0.43H9.30484L14.9448 15ZM24.8736 12.3V15H16.0936V0.43H19.4736V12.3H24.8736ZM35.3814 12.3V15H26.6014V0.43H29.9814V12.3H35.3814ZM41.8492 7.28C42.3092 7.28 42.6992 7.22333 43.0192 7.11C43.3459 6.99 43.6126 6.82667 43.8192 6.62C44.0259 6.41333 44.1759 6.17333 44.2692 5.9C44.3626 5.62 44.4092 5.32 44.4092 5C44.4092 4.36 44.1992 3.86 43.7792 3.5C43.3659 3.14 42.7226 2.96 41.8492 2.96H40.4892V7.28H41.8492ZM49.0292 15H45.9692C45.4026 15 44.9959 14.7867 44.7492 14.36L42.3292 10.13C42.2159 9.95 42.0892 9.82 41.9492 9.74C41.8092 9.65333 41.6092 9.61 41.3492 9.61H40.4892V15H37.1092V0.43H41.8492C42.9026 0.43 43.7992 0.54 44.5392 0.76C45.2859 0.973333 45.8926 1.27333 46.3592 1.66C46.8326 2.04667 47.1759 2.50333 47.3892 3.03C47.6026 3.55667 47.7092 4.13 47.7092 4.75C47.7092 5.22333 47.6459 5.67 47.5192 6.09C47.3926 6.51 47.2059 6.9 46.9592 7.26C46.7126 7.61333 46.4059 7.93 46.0392 8.21C45.6792 8.49 45.2626 8.72 44.7892 8.9C45.0092 9.01333 45.2159 9.15667 45.4092 9.33C45.6026 9.49667 45.7759 9.69667 45.9292 9.93L49.0292 15ZM53.6538 3.03V6.43H58.2338V8.93H53.6538V12.4H59.6337V15H50.2538V0.43H59.6337V3.03H53.6538ZM74.7886 0.43L68.9486 15H65.8886L60.0486 0.43H62.7686C63.0619 0.43 63.2986 0.5 63.4786 0.639999C63.6586 0.773333 63.7953 0.946666 63.8886 1.16L66.7086 8.96C66.8419 9.3 66.9719 9.67333 67.0986 10.08C67.2253 10.48 67.3453 10.9 67.4586 11.34C67.5519 10.9 67.6553 10.48 67.7686 10.08C67.8886 9.67333 68.0153 9.3 68.1486 8.96L70.9486 1.16C71.0219 0.973333 71.1519 0.806666 71.3386 0.66C71.5319 0.506667 71.7686 0.43 72.0486 0.43H74.7886ZM82.4264 9.43L81.0764 5.44C80.9764 5.18667 80.8697 4.89 80.7564 4.55C80.6431 4.20333 80.5297 3.83 80.4164 3.43C80.3164 3.83667 80.2097 4.21333 80.0964 4.56C79.9831 4.90667 79.8764 5.20667 79.7764 5.46L78.4364 9.43H82.4264ZM87.7964 15H85.1764C84.8831 15 84.6464 14.9333 84.4664 14.8C84.2864 14.66 84.1497 14.4833 84.0564 14.27L83.1964 11.73H77.6564L76.7964 14.27C76.7231 14.4567 76.5897 14.6267 76.3964 14.78C76.2097 14.9267 75.9764 15 75.6964 15H73.0564L78.6964 0.43H82.1564L87.7964 15Z" fill="white"/>
</svg>
