<svg width="160" height="160" viewBox="0 0 160 160" fill="none" xmlns="http://www.w3.org/2000/svg">
<path fill-rule="evenodd" clip-rule="evenodd" d="M62.8844 27.2006C70.2745 14.4006 88.7497 14.4006 96.1398 27.2006L140.164 103.452L135.89 107.726L137.586 109.422L141.406 105.603L149.799 120.14L143.68 126.259C141.478 124.182 137.759 124.466 135.299 126.926C132.839 129.386 132.555 133.105 134.632 135.307L127.574 142.365L127.706 142.401H127.399L119.057 127.952L122.596 124.413L120.899 122.717L117.815 125.8L106.341 105.926C106.274 105.762 106.195 105.6 106.102 105.441L82.8237 65.1206C81.3457 62.5606 77.6506 62.5606 76.1726 65.1206L52.8939 105.441C51.4158 108.001 53.2634 111.201 56.2194 111.201H89.987L71.9737 142.401L29.629 142.401C14.8488 142.401 5.61127 126.401 13.0014 113.601L62.8844 27.2006ZM127.405 116.212L122.88 120.737L124.576 122.434L129.102 117.908L127.405 116.212ZM129.384 114.231L133.91 109.706L135.607 111.402L131.081 115.928L129.384 114.231Z" fill="#7752FE"/>
</svg>
