<svg width="176" height="42" viewBox="0 0 176 42" fill="none" xmlns="http://www.w3.org/2000/svg">
<path d="M19.1497 24.86L16.4497 16.88C16.2497 16.3733 16.0364 15.78 15.8097 15.1C15.583 14.4067 15.3564 13.66 15.1297 12.86C14.9297 13.6733 14.7164 14.4267 14.4897 15.12C14.263 15.8133 14.0497 16.4133 13.8497 16.92L11.1697 24.86H19.1497ZM29.8897 36H24.6497C24.063 36 23.5897 35.8667 23.2297 35.6C22.8697 35.32 22.5964 34.9667 22.4097 34.54L20.6897 29.46H9.60969L7.88969 34.54C7.74302 34.9133 7.47635 35.2533 7.08969 35.56C6.71635 35.8533 6.24969 36 5.68969 36H0.409687L11.6897 6.86H18.6097L29.8897 36ZM49.7472 30.6V36H32.1872V6.86H38.9472V30.6H49.7472ZM70.7628 30.6V36H53.2028V6.86H59.9628V30.6H70.7628ZM83.6984 20.56C84.6184 20.56 85.3984 20.4467 86.0384 20.22C86.6918 19.98 87.2251 19.6533 87.6384 19.24C88.0518 18.8267 88.3518 18.3467 88.5384 17.8C88.7251 17.24 88.8184 16.64 88.8184 16C88.8184 14.72 88.3984 13.72 87.5584 13C86.7318 12.28 85.4451 11.92 83.6984 11.92H80.9784V20.56H83.6984ZM98.0584 36H91.9384C90.8051 36 89.9918 35.5733 89.4984 34.72L84.6584 26.26C84.4318 25.9 84.1784 25.64 83.8984 25.48C83.6184 25.3067 83.2184 25.22 82.6984 25.22H80.9784V36H74.2184V6.86H83.6984C85.8051 6.86 87.5984 7.08 89.0784 7.52C90.5718 7.94667 91.7851 8.54666 92.7184 9.32C93.6651 10.0933 94.3518 11.0067 94.7784 12.06C95.2051 13.1133 95.4184 14.26 95.4184 15.5C95.4184 16.4467 95.2918 17.34 95.0384 18.18C94.7851 19.02 94.4118 19.8 93.9184 20.52C93.4251 21.2267 92.8118 21.86 92.0784 22.42C91.3584 22.98 90.5251 23.44 89.5784 23.8C90.0184 24.0267 90.4318 24.3133 90.8184 24.66C91.2051 24.9933 91.5518 25.3933 91.8584 25.86L98.0584 36ZM107.308 12.06V18.86H116.468V23.86H107.308V30.8H119.267V36H100.508V6.86H119.267V12.06H107.308ZM149.577 6.86L137.897 36H131.777L120.097 6.86H125.537C126.124 6.86 126.597 7 126.957 7.28C127.317 7.54667 127.591 7.89333 127.777 8.32L133.417 23.92C133.684 24.6 133.944 25.3467 134.197 26.16C134.451 26.96 134.691 27.8 134.917 28.68C135.104 27.8 135.311 26.96 135.537 26.16C135.777 25.3467 136.031 24.6 136.297 23.92L141.897 8.32C142.044 7.94667 142.304 7.61333 142.677 7.32C143.064 7.01333 143.537 6.86 144.097 6.86H149.577ZM164.853 24.86L162.153 16.88C161.953 16.3733 161.739 15.78 161.513 15.1C161.286 14.4067 161.059 13.66 160.833 12.86C160.633 13.6733 160.419 14.4267 160.193 15.12C159.966 15.8133 159.753 16.4133 159.553 16.92L156.873 24.86H164.853ZM175.593 36H170.353C169.766 36 169.293 35.8667 168.933 35.6C168.573 35.32 168.299 34.9667 168.113 34.54L166.393 29.46H155.313L153.593 34.54C153.446 34.9133 153.179 35.2533 152.793 35.56C152.419 35.8533 151.953 36 151.393 36H146.113L157.393 6.86H164.313L175.593 36Z" fill="white"/>
</svg>
